<?xml version="1.0" standalone="no"?>
<!DOCTYPE svg PUBLIC "-//W3C//DTD SVG 20010904//EN"
 "http://www.w3.org/TR/2001/REC-SVG-20010904/DTD/svg10.dtd">
<svg version="1.0" xmlns="http://www.w3.org/2000/svg"
 width="25.607479pt" height="27.822004pt" viewBox="0 0 25.607479 27.822004"
 preserveAspectRatio="xMidYMid meet">
<metadata>
Created by Potrace Professional 1.1m
</metadata>
<g transform="translate(-16.462062,45.179975) rotate(-360.00) scale(0.011429,-0.011429)"
fill="#55524f" stroke="none">
<path d="M1735 3943 c-20 -9 -48 -13 -66 -9 -41 8 -62 -11 -62 -58 -1 -104 -8
-142 -28 -149 -52 -20 -66 -63 -40 -128 5 -14 1 -18 -16 -18 -62 0 -80 -46
-48 -123 9 -21 15 -39 14 -39 -27 -10 -46 -29 -48 -50 -8 -67 194 -279 469
-492 239 -184 310 -251 348 -327 19 -37 27 -63 20 -67 -6 -4 -10 -25 -8 -48 1
-23 -4 -47 -10 -54 -16 -16 -17 -97 -1 -127 6 -12 21 -33 33 -46 21 -24 22
-24 2 -39 -16 -12 -17 -16 -5 -17 9 0 -6 -9 -31 -19 -26 -10 -47 -24 -45 -31
1 -7 -7 -12 -19 -12 -29 0 -65 -20 -58 -32 4 -4 -20 -17 -52 -27 -61 -19 -77
-35 -29 -30 16 2 6 -3 -23 -12 -105 -32 -185 -76 -114 -63 29 6 29 6 -4 -10
-19 -8 -34 -17 -34 -19 0 -2 38 2 86 9 48 8 158 19 244 26 87 6 167 14 179 18
40 11 6 -10 -90 -55 -83 -39 -92 -46 -66 -49 30 -3 30 -3 -17 -32 l-48 -29 37
6 c20 3 45 7 55 9 24 5 24 -4 0 -21 -10 -7 -16 -15 -13 -18 3 -2 53 4 110 14
58 11 124 19 147 19 38 1 40 -1 23 -14 -19 -14 -18 -15 2 -26 12 -6 34 -11 49
-11 25 0 28 -3 22 -27 -7 -24 -5 -25 13 -16 46 25 118 13 206 -33 46 -25 85
-51 87 -58 2 -7 -13 -23 -33 -35 -53 -31 -51 -56 1 -29 24 12 61 20 95 20 47
0 60 -5 82 -28 17 -19 26 -23 26 -12 -1 8 -10 24 -22 35 -21 18 -21 20 -3 27
29 11 58 10 51 -1 -9 -15 1 -14 39 6 24 13 51 16 104 12 77 -6 85 5 19 25
l-42 12 113 62 c64 35 135 84 164 111 52 52 112 157 112 198 0 17 5 23 15 19
22 -9 32 55 22 136 -9 73 -9 126 0 202 5 37 2 65 -10 93 -24 57 -21 79 16 117
43 44 33 60 -34 51 -36 -5 -51 -3 -51 5 0 7 -4 10 -10 6 -5 -3 -12 -1 -16 4
-3 6 -47 9 -98 8 -107 -3 -153 -21 -304 -120 -54 -36 -115 -68 -135 -72 -63
-12 -153 3 -236 37 -73 30 -82 38 -121 98 -24 36 -52 82 -62 103 -10 20 -88
152 -173 294 -85 141 -213 358 -286 483 -267 459 -305 505 -394 467z m82 -21
c0 -6 -11 -12 -26 -14 -14 -2 -31 -10 -38 -18 -7 -9 -24 -15 -38 -15 -15 0
-24 -7 -24 -16 0 -9 -6 -16 -12 -16 -6 0 -9 11 -8 24 3 16 15 27 38 34 19 6
40 17 47 24 15 15 61 13 61 -3z m-57 -248 c34 -43 111 -137 172 -208 107 -124
140 -170 387 -531 104 -153 176 -275 168 -284 -6 -6 -216 259 -363 457 -78
105 -176 222 -228 273 -50 49 -111 117 -135 151 -24 34 -60 84 -78 110 -38 53
-70 146 -60 172 7 19 33 -7 137 -140z m-126 -2 c25 -57 127 -183 256 -318 55
-58 152 -176 215 -262 121 -168 305 -398 363 -454 48 -47 18 -43 -53 6 -63 44
-232 223 -503 532 -341 390 -391 466 -341 522 27 29 41 23 63 -26z m-67 -116
c10 -25 115 -158 222 -280 58 -66 136 -156 174 -199 94 -109 302 -337 333
-365 31 -29 31 -33 -4 -27 -20 4 -88 63 -213 186 -101 99 -227 219 -280 266
-160 144 -297 316 -297 372 0 20 34 61 51 61 5 0 12 -6 14 -14z m18 -263 c32
-34 98 -95 148 -136 121 -102 514 -490 514 -508 0 -9 -34 15 -76 52 -42 38
-154 129 -249 203 -292 226 -452 390 -452 463 0 32 23 37 42 10 8 -12 42 -50
73 -84z m789 -697 c29 -27 65 -70 80 -95 23 -39 26 -54 21 -112 -3 -46 -12
-77 -28 -99 -29 -41 -96 -75 -120 -62 -42 24 -65 129 -33 155 10 9 13 23 9 43
-3 18 -1 37 6 46 9 10 10 22 3 34 -5 11 -12 44 -16 73 -9 84 4 87 78 17z
m1094 23 c17 -18 -87 -89 -129 -88 -26 0 -26 0 8 32 20 17 49 34 66 37 17 4
28 11 25 16 -6 10 20 13 30 3z m144 -105 c0 -10 8 -39 17 -66 24 -68 14 -117
-35 -159 -35 -31 -42 -33 -98 -29 -34 2 -68 10 -78 18 -15 12 -11 18 37 45 29
16 58 42 65 56 6 14 15 26 19 26 4 0 11 12 15 28 17 70 58 126 58 81z m-696
-362 c54 -58 64 -73 47 -73 -10 0 -35 23 -91 85 -63 69 -71 81 -63 94 5 7 15
1 30 -18 12 -16 47 -56 77 -88z m693 4 c20 -5 24 -13 24 -53 0 -26 -4 -44 -10
-40 -6 3 -15 -14 -22 -39 -40 -150 -186 -281 -347 -311 -36 -7 -42 -11 -27
-17 16 -7 9 -13 -39 -33 -133 -53 -212 -47 -326 28 -43 29 -92 57 -108 62 -25
9 -26 8 -10 -2 11 -7 30 -22 42 -32 22 -17 22 -18 -9 -2 -17 8 -54 15 -81 15
-42 0 -48 3 -43 18 6 15 1 16 -29 12 -53 -8 -65 -1 -40 26 l21 23 -29 4 c-32
4 -80 37 -70 47 4 4 16 7 26 7 34 0 21 20 -30 47 l-50 26 199 0 c210 1 498 23
564 42 21 6 71 41 112 78 41 37 90 74 109 84 34 16 129 22 173 10z m-420 -35
c16 0 36 -5 45 -10 12 -8 8 -11 -17 -11 -40 0 -98 19 -98 33 0 6 8 5 20 -1 11
-6 33 -11 50 -11z"/>
</g>
</svg>
